<svg height="512pt" viewBox="0 0 512 512" width="512pt" xmlns="http://www.w3.org/2000/svg"><path d="m180.132812 369.425781h-99.449218c-5.523438 0-10-4.476562-10-10v-79.6875c0-5.519531 4.476562-10 10-10 5.523437 0 10 4.480469 10 10v69.6875h79.449218v-69.6875c0-5.519531 4.476563-10 10-10 5.523438 0 10 4.480469 10 10v79.6875c0 5.523438-4.476562 10-10 10zm0 0"/><path d="m502 255.925781c5.523438 0 10-4.480469 10-10v-127.621093c0-5.523438-4.476562-10-10-10h-52.964844v-98.304688c0-5.523438-4.476562-10-10-10h-240.171875c-5.523437 0-10 4.476562-10 10v98.304688h-60.683593c-5.523438 0-10 4.476562-10 10v100.0625h-108.179688c-5.523438 0-10 4.480468-10 10v244.355468c0 21.65625 17.621094 39.277344 39.277344 39.277344h433.445312c21.65625 0 39.277344-17.621094 39.277344-39.277344v-136.351562c0-5.519532-4.476562-10-10-10s-10 4.480468-10 10v136.351562c0 10.628906-8.648438 19.277344-19.277344 19.277344h-23.6875v-363.695312h42.964844v117.621093c0 5.519531 4.476562 10 10 10zm-72.964844 236.074219h-120.328125c3.222657-5.699219 5.066407-12.277344 5.066407-19.277344v-22.730468h115.261718zm0-383.695312h-50.683594v-88.304688h50.683594zm-70.683594-88.304688v88.304688h-78.804687v-88.304688zm-149.488281 0h50.683594v88.304688h-50.683594zm-70.683593 108.304688h50.683593v45.167968c0 5.523438 4.476563 10 10 10 5.523438 0 10-4.476562 10-10v-45.167968h149.492188v45.167968c0 5.523438 4.476562 10 10 10 5.523437 0 10-4.476562 10-10v-45.167968h50.683593v301.6875h-115.265624v-201.625c0-5.519532-4.476563-10-10-10h-165.59375zm-118.179688 344.417968v-234.355468h220.816406v253.632812h-201.539062c-10.628906 0-19.277344-8.648438-19.277344-19.277344zm240.816406-234.355468h32.957032v234.355468c0 10.628906-8.648438 19.277344-19.277344 19.277344h-13.679688zm0 0"/><path d="m502 300.96875c-4.253906 0-8.078125-2.789062-9.464844-6.789062-1.378906-3.984376.019532-8.59375 3.378906-11.148438 3.238282-2.464844 7.726563-2.710938 11.222657-.636719 3.648437 2.160157 5.515625 6.554688 4.628906 10.6875-.972656 4.539063-5.121094 7.886719-9.765625 7.886719zm0 0"/></svg>